<?xml version="1.0" encoding="UTF-8"?>
<svg id="Layer_2" xmlns="http://www.w3.org/2000/svg" viewBox="0 0 88.24 88.25">
  <defs>
    <style>
      .cls-1 {
        fill: #fff;
      }
    </style>
  </defs>
  <g id="HEader">
    <g>
      <path class="cls-1" d="M44.12,0c1.58,0,3.15,0,4.73,0,2.5,0,4.41,1.89,4.43,4.4.01,1.71.01,3.41,0,5.12,0,.38.12.55.49.65,2.65.72,5.17,1.78,7.56,3.13.33.19.53.17.8-.11,1.2-1.23,2.42-2.44,3.64-3.65,1.73-1.72,4.42-1.73,6.15-.02,2.27,2.26,4.54,4.53,6.8,6.8,1.67,1.68,1.72,4.31.08,6.03-1.23,1.29-2.5,2.55-3.77,3.8-.27.26-.27.45-.09.77,1.32,2.31,2.33,4.74,3.07,7.29.03.11.08.22.1.34.06.33.26.42.58.42,1.76-.01,3.52-.02,5.28,0,1.96.01,3.76,1.47,4.16,3.34.08.37.13.74.13,1.12,0,3.14,0,6.28,0,9.42,0,2.46-1.91,4.4-4.38,4.42-1.72.02-3.44.01-5.16,0-.36,0-.53.1-.63.46-.76,2.68-1.81,5.24-3.18,7.67-.16.29-.11.45.11.66,1.18,1.16,2.31,2.37,3.52,3.5,1.96,1.82,1.86,4.8.03,6.54-2.25,2.15-4.41,4.39-6.62,6.59-1.72,1.71-4.43,1.73-6.16.02-1.25-1.23-2.49-2.48-3.73-3.73-.21-.21-.36-.25-.63-.1-2.45,1.39-5.02,2.47-7.74,3.21-.31.09-.41.24-.4.55.01,1.73.01,3.47,0,5.2-.01,2.07-1.39,3.81-3.35,4.27-.37.09-.74.13-1.12.13-3.11,0-6.23,0-9.34,0-2.59,0-4.49-1.9-4.49-4.5,0-1.69-.01-3.39,0-5.08,0-.36-.13-.49-.46-.58-2.7-.74-5.27-1.81-7.7-3.21-.26-.15-.42-.09-.61.1-1.17,1.18-2.36,2.35-3.53,3.54-1.58,1.6-3.63,1.92-5.53.85-.59-.33-1.02-.85-1.49-1.31-2.06-2.05-4.11-4.11-6.16-6.17-1.68-1.69-1.66-4.39.02-6.09,1.24-1.25,2.48-2.49,3.74-3.73.23-.23.25-.4.09-.67-1.31-2.29-2.31-4.72-3.08-7.25-.26-.87-.28-.86-1.21-.87-1.52,0-3.05,0-4.57,0-2.29,0-4.04-1.48-4.43-3.73-.04-.2-.04-.41-.04-.62,0-3.19,0-6.39,0-9.58,0-2.47,1.92-4.38,4.4-4.39,1.73,0,3.47,0,5.2,0,.31,0,.47-.1.56-.41.74-2.73,1.82-5.32,3.22-7.77.14-.25.09-.39-.1-.57-1.27-1.26-2.53-2.52-3.79-3.79-.67-.68-1.08-1.5-1.2-2.45-.19-1.52.32-2.78,1.4-3.84,2.2-2.18,4.39-4.37,6.58-6.56,1.78-1.77,4.44-1.78,6.23,0,1.22,1.21,2.44,2.42,3.64,3.65.25.25.43.27.73.09,2.4-1.37,4.94-2.4,7.59-3.15.37-.1.5-.26.49-.64-.02-1.76-.03-3.52,0-5.28.02-2.3,1.96-4.22,4.26-4.24,1.63-.01,3.26,0,4.89,0ZM1.53,44.11c0,1.56.02,3.13,0,4.69-.03,1.65,1.38,2.98,2.9,2.93,2.11-.07,4.22-.01,6.33-.02.32,0,.49.09.56.43.14.66.32,1.32.53,1.96.84,2.66,1.97,5.19,3.42,7.56.17.28.12.45-.1.66-1.51,1.49-3.01,2.99-4.51,4.5-1.17,1.17-1.18,2.88,0,4.05,2.22,2.22,4.44,4.45,6.66,6.66,1.23,1.22,2.95,1.2,4.17-.04,1.46-1.47,2.93-2.93,4.39-4.4.25-.26.44-.31.77-.11,2.94,1.81,6.1,3.11,9.45,3.92.3.07.43.2.43.53,0,2.11.05,4.22-.01,6.33-.05,1.5,1.15,2.95,2.92,2.95,3.13,0,6.26.01,9.38,0,1.72,0,2.89-1.21,2.89-2.92,0-2.1,0-4.2,0-6.29,0-.35.1-.5.46-.58,3.33-.81,6.46-2.11,9.39-3.89.36-.22.57-.18.86.11,1.45,1.48,2.92,2.94,4.39,4.4,1.2,1.2,2.91,1.22,4.12.02,2.22-2.2,4.43-4.41,6.64-6.63,1.23-1.24,1.2-2.94-.04-4.17-1.49-1.48-2.97-2.97-4.45-4.45-.18-.18-.29-.33-.13-.6,1.83-2.96,3.15-6.14,3.97-9.51.09-.39.26-.49.64-.49,2.08.01,4.17,0,6.25,0,1.68,0,2.9-1.13,2.91-2.81.03-3.18.02-6.36,0-9.54-.01-1.43-1.08-2.66-2.36-2.8-1.34-.15-2.68-.01-4.02-.04-.95-.02-1.9,0-2.85,0-.34,0-.49-.12-.58-.47-.8-3.34-2.12-6.48-3.9-9.42-.2-.33-.15-.51.11-.76,1.49-1.47,2.97-2.96,4.45-4.45,1.16-1.16,1.19-2.9.03-4.06-2.22-2.24-4.45-4.46-6.69-6.69-1.15-1.15-2.84-1.22-4-.1-1.55,1.49-3.05,3.03-4.55,4.56-.25.26-.42.29-.72.1-2.91-1.76-6-3.06-9.3-3.89-.62-.15-.61-.17-.61-.8,0-2.05,0-4.09,0-6.14,0-1.7-1.21-2.89-2.92-2.89-3.11,0-6.23.01-9.34,0-1.62,0-2.95,1.26-2.92,2.9.03,2.15.05,4.3-.02,6.45,0,.26-.09.36-.33.42-.77.2-1.54.39-2.3.63-2.56.8-4.97,1.94-7.27,3.33-.29.18-.46.15-.69-.09-1.46-1.48-2.95-2.95-4.42-4.43-1.24-1.24-2.92-1.28-4.17-.05-2.25,2.23-4.48,4.47-6.72,6.72-1.1,1.1-1.09,2.83,0,3.94,1.49,1.51,2.99,3.02,4.51,4.5.29.28.31.49.1.82-.75,1.19-1.39,2.45-1.96,3.73-.82,1.85-1.48,3.76-1.95,5.72-.06.25-.16.37-.44.36-2.14-.06-4.27.08-6.41.03-1.7-.05-2.96,1.34-2.93,2.97.03,1.54,0,3.08,0,4.61Z"/>
      <path class="cls-1" d="M21.05,44.08c.08-12.77,10.38-23.1,23.24-23.01,12.56.09,22.89,10.2,22.88,23.08-.01,12.8-10.29,23.05-23.08,23.03-12.84-.02-22.99-10.36-23.03-23.09ZM22.62,44.1c-.09,11.78,9.62,21.59,21.64,21.53,11.75-.06,21.34-9.69,21.36-21.51.02-11.92-9.8-21.62-21.75-21.51-11.67.1-21.26,9.72-21.25,21.5Z"/>
    </g>
  </g>
</svg>