<?xml version="1.0" encoding="UTF-8"?>
<svg id="Layer_2" xmlns="http://www.w3.org/2000/svg" viewBox="0 0 82.19 80.01">
  <defs>
    <style>
      .cls-1 {
        fill: #fff;
      }
    </style>
  </defs>
  <g id="HEader">
    <g>
      <path class="cls-1" d="M40.96,80c-11.38,0-22.76,0-34.14,0C2.38,80,0,77.6,0,73.13,0,51.09,0,29.05,0,7,0,2.4,2.4,0,7.02,0,29.73,0,52.45,0,75.16,0c4.22,0,6.62,2.2,6.99,6.4.04.48.03.96.03,1.44,0,21.42,0,42.84,0,64.25,0,.72-.03,1.44-.12,2.15-.48,3.65-2.85,5.75-6.52,5.75-11.53.01-23.05,0-34.58,0ZM40.99,76.42h0c11.28,0,22.56,0,33.84,0,2.79,0,3.64-.82,3.64-3.59,0-21.89,0-43.78,0-65.66,0-2.77-.84-3.59-3.63-3.59-22.46,0-44.93,0-67.39,0-3.1,0-3.87.8-3.87,3.97,0,21.7,0,43.39,0,65.09,0,3,.76,3.78,3.72,3.78,11.23,0,22.46,0,33.7,0Z"/>
      <path class="cls-1" d="M41.01,71.9c-10.8,0-21.6,0-32.4,0-1.98,0-1.83-.03-2.01-2.02-.23-2.47.84-4.23,2.35-6.05,6.97-8.37,13.82-16.84,20.74-25.25,1.6-1.94,2.61-1.91,4.32-.08,3.96,4.24,7.97,8.45,11.9,12.72.79.86,1.36.92,2.25.17,1.57-1.34,3.21-2.59,4.86-3.84,1.35-1.02,2.4-.97,3.57.24,6.05,6.3,12.08,12.61,18.11,18.93.63.66.99,3.9.56,4.67-.36.65-.99.49-1.54.49-3.31.02-6.62,0-9.94,0-7.58,0-15.17,0-22.75,0Z"/>
      <path class="cls-1" d="M58.67,17.28c5.03,0,8.95,3.91,8.95,8.94,0,5.03-4.05,9.09-9.05,9.05-4.9-.04-8.96-4.16-8.94-9.08.01-4.94,4.04-8.9,9.04-8.91Z"/>
    </g>
  </g>
</svg>