<?xml version="1.0" encoding="UTF-8"?>
<svg id="Layer_2" xmlns="http://www.w3.org/2000/svg" viewBox="0 0 30.85 52.35">
  <defs>
    <style>
      .cls-1 {
        fill: #dc3e19;
      }

      .cls-2 {
        fill: #e88169;
      }

      .cls-3 {
        fill: #ffd766;
      }

      .cls-4 {
        fill: #f9b337;
      }
    </style>
  </defs>
  <g id="HEader">
    <g>
      <path class="cls-1" d="M13.89,45.81c-.59-1.13-1.18-2.26-1.77-3.38-3.47-6.58-6.92-13.17-10.41-19.74-.77-1.45-1.2-2.97-1.47-4.56-.07-.43-.12-.86-.17-1.29.05-.04.04-.08,0-.12-.09-.73-.06-1.46,0-2.19.05-.04.06-.08,0-.12.27-3.08,1.3-5.87,3.17-8.33C5.42,3.17,8.27,1.26,11.81.39c.47-.11.95-.2,1.43-.26.05.05.08.03.12-.01.16-.02.32-.04.49-.05.04.05.08.04.12,0,1.8-.13,3.58-.06,5.33.4,3.13.81,5.71,2.48,7.79,4.93,1.94,2.3,3.1,4.95,3.57,7.92.03.16.04.32.06.48-.05.04-.04.08,0,.12.02.16.03.32.05.49-.05.04-.04.08,0,.12.06.73.09,1.46,0,2.19-.05.04-.06.08,0,.12-.15,1.38-.4,2.74-.83,4.06-.17.53-.42,1.03-.68,1.52-1.19,2.25-2.38,4.51-3.56,6.76-2.87,5.46-5.74,10.91-8.62,16.37-.05.09-.09.18-.13.27-.02.03-.05.06-.07.1-.43.82-.86,1.65-1.3,2.47-.05.09-.08.2-.19.28-.24-.44-.46-.87-.69-1.3-.28-.52-.55-1.03-.83-1.55ZM15.42,22.41c4.62,0,8.37-3.75,8.37-8.36,0-4.62-3.73-8.36-8.35-8.38-4.61-.02-8.39,3.75-8.39,8.38,0,4.61,3.76,8.36,8.37,8.36Z"/>
      <path class="cls-3" d="M13.89,45.81c.28.52.55,1.03.83,1.55.23.43.45.85.69,1.3.12-.08.14-.19.19-.28.43-.82.87-1.65,1.3-2.47.02-.04.05-.07.07-.1.39.06.78.11,1.16.18.94.17,1.85.44,2.69.9.37.2.7.44.98.75.26.28.45.6.45,1,0,.09.03.18.04.27-.07.04-.09.11-.11.18-.09.3-.27.53-.48.76-.45.48-1.02.75-1.61,1-1.25.52-2.58.71-3.91.79-.62.04-1.25.03-1.87-.03-.53-.05-1.06-.11-1.58-.2-.9-.16-1.77-.41-2.57-.84-.58-.31-1.12-.69-1.42-1.31-.02-.03-.06-.06-.09-.08,0-.04,0-.08,0-.12-.13-.76.24-1.3.8-1.75.55-.44,1.19-.72,1.85-.93.78-.25,1.57-.43,2.39-.5.07,0,.14-.03.21-.05Z"/>
      <path class="cls-4" d="M8.64,49.15s.07.05.09.08c.3.62.84.99,1.42,1.31.81.43,1.68.68,2.57.84.52.09,1.05.15,1.58.2.63.06,1.25.07,1.87.03,1.34-.08,2.66-.26,3.91-.79.59-.24,1.16-.52,1.61-1,.21-.22.39-.46.48-.76.02-.07.04-.14.11-.18.2.42.13.83-.09,1.21-.2.36-.51.62-.85.85-.69.47-1.45.75-2.25.95-1.51.38-3.04.5-4.6.4-1.15-.07-2.27-.25-3.35-.63-.56-.19-1.09-.43-1.57-.77-.21-.15-.39-.32-.56-.51-.31-.36-.47-.77-.38-1.26Z"/>
      <path class="cls-2" d="M13.97.06s-.08.06-.12,0c.04-.03.08-.04.12,0Z"/>
      <path class="cls-2" d="M13.36.12s-.07.07-.12.01c.04-.04.08-.04.12-.01Z"/>
      <path class="cls-2" d="M30.73,13.91s-.06-.08,0-.12c.04.04.04.08,0,.12Z"/>
      <path class="cls-2" d="M.06,14.4c.05.04.04.08,0,.12-.03-.04-.03-.08,0-.12Z"/>
      <path class="cls-2" d="M30.79,14.52s-.06-.08,0-.12c.04.04.04.08,0,.12Z"/>
      <path class="cls-2" d="M.06,16.7s.06.08,0,.12c-.04-.04-.04-.08,0-.12Z"/>
      <path class="cls-2" d="M30.78,16.82c-.05-.04-.04-.08,0-.12.03.04.03.08,0,.12Z"/>
    </g>
  </g>
</svg>