<?xml version="1.0" encoding="UTF-8"?>
<svg id="Layer_2" xmlns="http://www.w3.org/2000/svg" viewBox="0 0 438.48 67.29">
  <defs>
    <style>
      .cls-1 {
        fill: #fff;
      }
    </style>
  </defs>
  <g id="HEader">
    <path class="cls-1" d="M219.42,0c71.19,0,142.39,0,213.58,0,.77,0,1.54,0,2.31,0,3.13.02,3.17.04,3.17,3.28,0,8.93,0,17.86,0,26.78,0,11.08,0,22.17,0,33.25q0,3.96-3.87,3.97c-32.33,0-64.65,0-96.98,0-110.98,0-221.97,0-332.95,0-5.14,0-4.67.42-4.67-4.78C0,43.11,0,23.71,0,4.32Q0,0,4.23,0c71.73,0,143.46,0,215.19,0ZM177.92,60.67c56.03,0,112.06-.01,168.09.05,2.25,0,2.82-.6,2.81-2.82-.09-16.01-.05-32.02-.05-48.03,0-3.22-.02-3.25-3.19-3.25-111.98,0-223.97,0-335.95-.05-2.36,0-3.01.73-2.99,3.04.09,15.78.05,31.56.05,47.33q0,3.72,3.84,3.72c55.8,0,111.6,0,167.4,0ZM390.66,12.15c-10.36-.04-18.23,8.87-16.61,18.8,1.99,12.17,14.68,18.18,25.3,11.87,1.53-.91,2.38-.72,3.53.47,3.42,3.54,6.96,6.96,10.41,10.47.94.96,1.66,1.4,2.82.2,1.27-1.31.14-1.85-.57-2.57-3.3-3.34-6.54-6.73-9.94-9.96-1.53-1.46-1.7-2.52-.58-4.46,6.45-11.22-1.45-24.77-14.35-24.82Z"/>
  </g>
</svg>