<?xml version="1.0" encoding="UTF-8"?>
<svg id="Layer_2" xmlns="http://www.w3.org/2000/svg" viewBox="0 0 35.81 34.86">
  <defs>
    <style>
      .cls-1 {
        fill: #fff;
      }
    </style>
  </defs>
  <g id="HEader">
    <g>
      <path class="cls-1" d="M17.85,34.86c-4.96,0-9.92,0-14.88,0C1.04,34.86,0,33.81,0,31.86,0,22.26,0,12.66,0,3.05,0,1.05,1.05,0,3.06,0,12.95,0,22.85,0,32.75,0c1.84,0,2.88.96,3.05,2.79.02.21.01.42.01.63,0,9.33,0,18.66,0,28,0,.31-.01.63-.05.94-.21,1.59-1.24,2.5-2.84,2.51-5.02,0-10.04,0-15.07,0ZM17.86,33.3h0c4.91,0,9.83,0,14.74,0,1.21,0,1.59-.36,1.59-1.56,0-9.54,0-19.07,0-28.61,0-1.21-.37-1.57-1.58-1.57-9.79,0-19.58,0-29.36,0-1.35,0-1.69.35-1.69,1.73,0,9.45,0,18.91,0,28.36,0,1.31.33,1.65,1.62,1.65,4.89,0,9.79,0,14.68,0Z"/>
      <path class="cls-1" d="M17.87,31.33c-4.71,0-9.41,0-14.12,0-.86,0-.8-.01-.88-.88-.1-1.08.37-1.84,1.02-2.63,3.04-3.65,6.02-7.34,9.04-11,.7-.85,1.14-.83,1.88-.03,1.73,1.85,3.47,3.68,5.18,5.54.35.38.59.4.98.07.68-.58,1.4-1.13,2.12-1.67.59-.45,1.05-.42,1.55.11,2.64,2.74,5.26,5.5,7.89,8.25.27.29.43,1.7.24,2.04-.16.28-.43.21-.67.21-1.44,0-2.89,0-4.33,0-3.3,0-6.61,0-9.91,0Z"/>
      <path class="cls-1" d="M25.56,7.53c2.19,0,3.9,1.7,3.9,3.89,0,2.19-1.77,3.96-3.94,3.94-2.13-.02-3.9-1.81-3.9-3.96,0-2.15,1.76-3.88,3.94-3.88Z"/>
    </g>
  </g>
</svg>