<?xml version="1.0" encoding="UTF-8"?>
<svg id="Layer_2" xmlns="http://www.w3.org/2000/svg" viewBox="0 0 43.33 35.41">
  <defs>
    <style>
      .cls-1 {
        fill: #fff;
      }
    </style>
  </defs>
  <g id="HEader">
    <path class="cls-1" d="M25.63,24.21c-4.14,0-8.28,0-12.41,0-.35,0-.35,0-.26.34.22.78.44,1.57.64,2.35.06.24.16.32.41.3,1.18-.12,2.2.25,3.08,1.02.65.57,1.08,1.28,1.26,2.13.05.21.13.28.35.28,4.82,0,9.64,0,14.45,0,.21,0,.3-.06.36-.28.47-1.74,1.6-2.8,3.37-3.13,2.17-.4,4.4,1.26,4.69,3.45.31,2.35-1.26,4.4-3.62,4.7-1.97.25-3.93-1.1-4.42-3.07q-.09-.36-.46-.36c-4.76,0-9.52,0-14.28,0-.27,0-.39.07-.46.35-.47,1.9-2.16,3.14-4.18,3.09-1.78-.04-3.43-1.44-3.81-3.25-.36-1.68.36-3.38,1.85-4.32.2-.13.24-.24.18-.46-1.44-5.26-2.88-10.51-4.32-15.77-.89-3.26-1.78-6.52-2.67-9.78-.14-.53-.05-.47-.61-.47-1.27,0-2.53,0-3.8,0-.14,0-.29,0-.43-.03C.21,1.24-.01.96,0,.64.01.3.27.04.61,0c.06,0,.12,0,.18,0,1.72,0,3.44,0,5.16,0,.24,0,.34.07.4.3.21.83.46,1.65.66,2.48.07.29.2.36.48.35,1.48-.01,2.95,0,4.43,0,10.18,0,20.36,0,30.55-.01.69,0,.98.43.82,1.05-1.33,5.38-2.64,10.77-3.95,16.15-.29,1.19-.59,2.38-.86,3.57-.06.26-.18.33-.43.33-4.14,0-8.28,0-12.41,0Z"/>
  </g>
</svg>