<?xml version="1.0" encoding="UTF-8"?>
<svg id="Layer_2" xmlns="http://www.w3.org/2000/svg" viewBox="0 0 36.87 47.54">
  <defs>
    <style>
      .cls-1 {
        fill: #fff;
      }
    </style>
  </defs>
  <g id="HEader">
    <path class="cls-1" d="M0,11.15c.02-2.27.49-4.26,1.86-5.98.62-.78,1.39-1.39,2.17-2,1.23-.96,2.52-1.8,3.91-2.5C8.63.32,9.36.03,10.16,0c.92-.03,1.59.4,2.01,1.2.55,1.05,1.07,2.1,1.61,3.16.86,1.71,1.72,3.42,2.58,5.14.54,1.08.45,2.11-.3,3.06-.3.38-.7.65-1.13.88-1.02.55-2.11.96-3.12,1.54-1.1.63-1.44,1.34-1.22,2.6.19,1.09.67,2.07,1.24,3,1.31,2.13,2.75,4.18,4.09,6.29,1.15,1.8,2.26,3.62,3.38,5.44.44.71.96,1.35,1.59,1.89,1.04.9,2,.9,3.13.01.85-.67,1.7-1.33,2.53-2.02,1.15-.95,2.82-.77,3.79.39,1.97,2.36,3.94,4.72,5.91,7.08.85,1.02.85,2-.01,3.16-.41.55-.92.99-1.46,1.4-1.42,1.09-2.86,2.15-4.56,2.8-1.81.69-3.62.65-5.43.07-2.6-.83-4.83-2.31-6.88-4.08-3.64-3.13-6.61-6.83-9.38-10.72-1.48-2.08-2.72-4.31-3.91-6.56-1.39-2.63-2.62-5.33-3.49-8.19C.46,15.43.04,13.26,0,11.15Z"/>
  </g>
</svg>