<?xml version="1.0" encoding="UTF-8"?>
<svg id="Layer_2" xmlns="http://www.w3.org/2000/svg" viewBox="0 0 118.87 91.88">
  <defs>
    <style>
      .cls-1 {
        fill: #fff;
      }
    </style>
  </defs>
  <g id="HEader">
    <path class="cls-1" d="M64.72,83.11c-17.42,0-34.83,0-52.25,0-1.54,0-1.53,0-1.55,1.51-.03,2.04.06,4.09-.11,6.13-.04.5.08,1.17-.67,1.14-.72-.03-.61-.7-.61-1.19,0-2.05,0-4.09,0-6.14q0-1.45-1.49-1.45c-2.17,0-4.35,0-6.52,0-.29,0-.58,0-.86-.05-.39-.06-.67-.26-.66-.68,0-.42.31-.61.7-.64.41-.03.83-.03,1.25-.03,2.17,0,4.35-.03,6.52.02.84.02,1.11-.25,1.1-1.09-.02-4.28-.04-8.56.04-12.85.21-10.77.02-21.54.19-32.3.18-11.09.08-22.17.18-33.26,0-.54.07-1.08.12-1.62C10.14.24,10.33,0,10.72,0c.39,0,.58.24.62.6.04.38.04.77.04,1.15-.03,7.89.03,15.79-.11,23.68-.16,9.65,0,19.3-.18,28.95-.16,8.66-.06,17.32-.14,25.97-.01,1.36,0,1.36,1.38,1.36,1.6,0,3.2-.03,4.79.01.8.02,1.03-.27,1.04-1.05.05-5.37.14-10.73.22-16.1.06-3.96.14-7.92.22-11.88.03-1.3.16-1.44,1.44-1.44,3.74,0,7.48,0,11.22,0,1.18,0,1.38.24,1.29,1.44-.03.41-.07.83-.08,1.24-.09,6.07-.13,12.14-.29,18.21-.08,2.84-.06,5.69-.15,8.53-.03.8.24,1.09,1.04,1.05.99-.05,1.98-.02,2.97-.01.52,0,.76-.21.77-.74.02-.8.11-1.59.12-2.39.09-5.72.16-11.44.25-17.15.13-7.54.26-15.07.4-22.61.11-5.97.24-11.94.35-17.91.03-1.52.13-1.64,1.65-1.64,3.61,0,7.22,0,10.83,0,1.32,0,1.42.11,1.4,1.43-.08,6.1-.16,12.2-.26,18.3-.11,6.71-.24,13.41-.37,20.12-.13,6.93-.26,13.86-.4,20.79-.04,1.81-.05,1.81,1.76,1.81,1.09,0,2.17-.02,3.26,0,.6.01.91-.21.87-.84-.01-.25,0-.51,0-.77.09-6.2.16-12.39.27-18.59.11-6.67.25-13.35.38-20.02.02-.99.1-1.98.11-2.97,0-.64.26-.93.92-.93,3.99.01,7.99.01,11.98,0,.69,0,1,.28.99.97-.09,4.31-.17,8.62-.26,12.93,0,.32-.06.64-.06.96-.09,6.04-.13,12.08-.29,18.11-.09,3.35-.07,6.71-.18,10.06-.03.85.27,1.14,1.1,1.1,1.15-.05,2.3-.05,3.45,0,.77.03.98-.28.98-1.01.04-4.15.13-8.3.2-12.46.14-7.54.27-15.07.41-22.61.12-6.58.25-13.16.38-19.74.12-6.58.25-13.16.37-19.74.02-1.22.16-1.35,1.41-1.35,3.74,0,7.48,0,11.22,0,1.19,0,1.26.07,1.25,1.25-.08,6.17-.15,12.33-.26,18.5-.11,6.58-.26,13.16-.38,19.74-.13,6.96-.25,13.92-.39,20.89-.1,5.11-.2,10.22-.34,15.33-.02.9.21,1.28,1.17,1.21,1.08-.07,2.17-.05,3.26,0,.78.04,1.05-.23,1.06-1.03.05-5.21.14-10.41.22-15.62.04-2.68.13-5.36.15-8.05,0-.85.32-1.21,1.19-1.2,3.87.02,7.73.02,11.6,0,.81,0,1.15.3,1.13,1.13-.13,6-.25,12.01-.36,18.01-.04,1.92-.01,3.83-.07,5.75-.02.76.25,1.01,1,1,2.36-.03,4.73-.01,7.09-.01.29,0,.58,0,.86.03.35.05.6.25.62.62.02.37-.22.62-.57.66-.6.07-1.21.11-1.81.11-17.26,0-34.51,0-51.77,0,0,0,0-.02,0-.03Z"/>
  </g>
</svg>