<?xml version="1.0" encoding="UTF-8"?>
<svg id="Layer_2" xmlns="http://www.w3.org/2000/svg" viewBox="0 0 75.45 69.91">
  <defs>
    <style>
      .cls-1 {
        fill: #fff;
      }
    </style>
  </defs>
  <g id="HEader">
    <g>
      <path class="cls-1" d="M29.27,69.88c-8.1,0-16.2,0-24.29,0-3.25,0-4.97-1.74-4.97-5.02C0,49.24,0,33.63,0,18.01c0-3.34,1.72-5.06,5.04-5.06,16.16,0,32.32,0,48.49,0,3.13,0,4.96,1.82,4.96,4.98,0,15.62,0,31.23,0,46.85,0,3.1-1.85,5.18-5.14,5.14-8.03-.1-16.06-.03-24.09-.03ZM29.22,67.33h0c8.06,0,16.13,0,24.19,0,1.75,0,2.41-.62,2.52-2.36.04-.58.02-1.16.02-1.74,0-14.96,0-29.93,0-44.89,0-2.14-.69-2.84-2.8-2.84-15.99,0-31.98,0-47.97,0-2.01,0-2.62.63-2.62,2.65,0,15.54,0,31.09,0,46.63,0,1.97.58,2.54,2.58,2.55,8.03,0,16.06,0,24.09,0Z"/>
      <path class="cls-1" d="M46.22,56.93c-8.1,0-16.2,0-24.29,0-3.25,0-4.97-1.74-4.97-5.02,0-15.62,0-31.23,0-46.85C16.95,1.73,18.67,0,22,0c16.16,0,32.32,0,48.49,0,3.13,0,4.96,1.82,4.96,4.98,0,15.62,0,31.23,0,46.85,0,3.1-1.85,5.18-5.14,5.14-8.03-.1-16.06-.03-24.09-.03ZM46.17,54.38h0c8.06,0,16.13,0,24.19,0,1.75,0,2.41-.62,2.52-2.36.04-.58.02-1.16.02-1.74,0-14.96,0-29.93,0-44.89,0-2.14-.69-2.84-2.8-2.84-15.99,0-31.98,0-47.97,0-2.01,0-2.62.63-2.62,2.65,0,15.54,0,31.09,0,46.63,0,1.97.58,2.54,2.58,2.55,8.03,0,16.06,0,24.09,0Z"/>
    </g>
  </g>
</svg>